<svg width="4500" height="4500" viewBox="0 0 4500 4500" fill="none" xmlns="http://www.w3.org/2000/svg">
<rect width="4500" height="4500" rx="500" fill="url(#paint0_linear_145_10)"/>
<path d="M3567.73 3458.28C3564.85 3492.92 3560.52 3529 3554.74 3566.52C3548.97 3604.05 3538.87 3638.68 3524.44 3670.43C3510.01 3705.07 3491.24 3731.05 3468.15 3748.37C3436.4 3777.23 3398.88 3793.1 3355.58 3795.99C3315.17 3810.42 3276.21 3814.75 3238.68 3808.98C3201.16 3803.21 3166.52 3793.1 3134.77 3778.67C3094.36 3752.7 3064.06 3722.39 3043.85 3687.75C3026.53 3650.23 3013.54 3611.26 3004.88 3570.85C2996.22 3530.44 2991.9 3488.59 2991.9 3445.29C2991.9 3402 2991.9 3361.59 2991.9 3324.06V2986.35L2987.57 2323.92C2987.57 2277.74 2987.57 2241.66 2987.57 2215.68C2987.57 2189.7 2987.57 2166.61 2987.57 2146.41C2987.57 2123.32 2986.12 2098.78 2983.24 2072.81C2983.24 2043.94 2983.24 2003.53 2983.24 1951.58C2983.24 1942.92 2983.24 1928.49 2983.24 1908.28C2986.12 1885.19 2984.68 1826.02 2978.91 1730.77C2866.34 1918.38 2772.53 2069.92 2697.48 2185.38C2625.32 2297.95 2563.26 2385.98 2511.31 2449.48C2462.24 2510.1 2418.94 2551.95 2381.42 2575.04C2343.9 2595.25 2304.93 2606.79 2264.52 2609.68C2241.43 2612.56 2218.34 2608.23 2195.25 2596.69C2172.16 2585.14 2149.06 2570.71 2125.97 2553.39C2105.77 2536.07 2085.56 2518.76 2065.36 2501.44C2048.04 2481.23 2033.61 2462.47 2022.06 2445.15C1952.79 2358.56 1874.86 2254.65 1788.26 2133.42C1701.67 2012.19 1612.19 1864.98 1519.83 1691.8C1519.83 1694.69 1518.38 1742.31 1515.5 1834.68C1515.5 1927.04 1515.5 2042.5 1515.5 2181.05C1515.5 2316.71 1514.05 2463.91 1511.17 2622.67C1511.17 2778.53 1509.72 2924.3 1506.84 3059.96C1506.84 3195.62 1505.4 3309.63 1502.51 3402C1499.62 3491.48 1496.74 3536.21 1493.85 3536.21C1493.85 3585.28 1482.3 3631.47 1459.21 3674.76C1436.12 3715.17 1404.37 3748.37 1363.96 3774.34C1326.44 3800.32 1281.7 3814.75 1229.74 3817.64C1177.79 3820.53 1121.5 3806.09 1060.89 3774.34C1023.37 3751.25 994.501 3718.06 974.296 3674.76C956.978 3631.47 945.432 3591.06 939.659 3553.53C936.773 3513.12 933.886 3474.16 931 3436.63C931 3399.11 931 3360.14 931 3319.73L935.33 2982.02L939.659 2315.26V1735.1C939.659 1483.98 948.318 1237.19 965.637 994.732C965.637 962.982 968.523 934.118 974.296 908.14C982.955 879.276 993.058 851.855 1004.6 825.877C1027.69 779.695 1058 745.058 1095.53 721.967C1138.82 695.989 1185 683 1234.07 683C1254.28 683 1273.04 684.443 1290.36 687.33C1310.56 687.33 1329.32 688.773 1346.64 691.659C1404.37 703.205 1453.44 737.842 1493.85 795.57C1537.15 850.412 1577.56 898.037 1615.08 938.447C1638.17 964.425 1662.7 996.175 1688.68 1033.7C1714.66 1071.22 1740.64 1110.19 1766.62 1150.6C1792.59 1191.01 1817.13 1229.97 1840.22 1267.5C1863.31 1305.02 1883.51 1338.21 1900.83 1367.08C1975.88 1488.31 2042.27 1599.43 2100 1700.46C2160.61 1801.48 2216.89 1888.08 2268.85 1960.24C2277.51 1951.58 2287.61 1940.03 2299.16 1925.6C2310.7 1908.28 2322.25 1890.96 2333.79 1873.64C2348.23 1853.44 2359.77 1834.68 2368.43 1817.36C2379.98 1800.04 2388.64 1785.61 2394.41 1774.06C2423.27 1727.88 2452.14 1683.14 2481 1639.84C2509.87 1593.66 2540.17 1546.04 2571.92 1496.97C2606.56 1445.01 2641.2 1388.73 2675.83 1328.11C2713.36 1267.5 2756.65 1198.22 2805.72 1120.29C2825.93 1085.65 2851.9 1043.8 2883.65 994.732C2915.41 945.663 2951.49 898.037 2991.9 851.855C3032.3 805.672 3074.16 766.706 3117.45 734.955C3163.64 700.318 3209.82 683 3256 683C3279.09 683 3299.3 684.443 3316.62 687.33C3333.93 687.33 3351.25 688.773 3368.57 691.659C3403.21 694.546 3436.4 710.421 3468.15 739.285C3491.24 762.376 3508.56 786.911 3520.11 812.889C3531.65 850.412 3538.87 882.162 3541.76 908.14C3544.64 928.345 3546.09 947.106 3546.09 964.425C3548.97 981.743 3550.42 999.062 3550.42 1016.38C3550.42 1178.02 3551.86 1338.21 3554.74 1496.97C3557.63 1655.72 3559.07 1815.92 3559.07 1977.55C3559.07 2173.83 3559.07 2375.88 3559.07 2583.7C3561.96 2791.52 3563.4 2993.57 3563.4 3189.85C3563.4 3230.26 3564.85 3273.55 3567.73 3319.73C3570.62 3365.92 3570.62 3412.1 3567.73 3458.28Z" fill="white"/>
<defs>
<linearGradient id="paint0_linear_145_10" x1="2250" y1="0" x2="2250" y2="4500" gradientUnits="userSpaceOnUse">
<stop stop-color="#4566E0"/>
<stop offset="1" stop-color="#46A4B9"/>
</linearGradient>
</defs>
</svg>
